<?xml version="1.0" encoding="utf-8"?>
<!-- Generator: Adobe Illustrator 19.0.0, SVG Export Plug-In . SVG Version: 6.00 Build 0)  -->
<svg version="1.0" id="Layer_2" xmlns="http://www.w3.org/2000/svg" xmlns:xlink="http://www.w3.org/1999/xlink" x="0px" y="0px"
	 width="69.4px" height="69.4px" viewBox="0 0 69.4 69.4" style="enable-background:new 0 0 69.4 69.4;" xml:space="preserve">
<style type="text/css">
	.st0{fill:#FFF;}
</style>
<g>
	<path class="st0" d="M65.3,34.7c0-16.9-13.7-30.6-30.6-30.6C17.8,4.1,4.1,17.8,4.1,34.7c0,11.7,6.6,21.8,16.2,27l0.5-20.2
		l-10.5,1.2l22.4-17.8l3.6-20.2l2.4,20.1l19.6,11.6l-7.7,2.2L51,60.6C59.6,55.2,65.3,45.6,65.3,34.7z"/>
	<path class="st0" d="M34.7,65.3c3.2,0,6.2-0.5,9.1-1.4H25.6C28.5,64.8,31.5,65.3,34.7,65.3z"/>
</g>
</svg>
